<mxfile host="app.diagrams.net" modified="2022-04-17T08:31:50.501Z" agent="5.0 (Macintosh; Intel Mac OS X 10_15_7) AppleWebKit/605.1.15 (KHTML, like Gecko) Version/15.3 Safari/605.1.15" etag="FGgMMhM_BsSomwOOjbbB" version="17.4.5" type="github">
  <diagram id="C5RBs43oDa-KdzZeNtuy" name="Page-1">
    <mxGraphModel dx="848" dy="687" grid="1" gridSize="10" guides="1" tooltips="1" connect="1" arrows="1" fold="1" page="1" pageScale="1" pageWidth="827" pageHeight="1169" math="0" shadow="0">
      <root>
        <mxCell id="WIyWlLk6GJQsqaUBKTNV-0" />
        <mxCell id="WIyWlLk6GJQsqaUBKTNV-1" parent="WIyWlLk6GJQsqaUBKTNV-0" />
        <mxCell id="QDgANllMK5spxsEK0VO_-13" style="edgeStyle=orthogonalEdgeStyle;rounded=0;orthogonalLoop=1;jettySize=auto;html=1;exitX=0.5;exitY=1;exitDx=0;exitDy=0;entryX=0.5;entryY=0;entryDx=0;entryDy=0;" edge="1" parent="WIyWlLk6GJQsqaUBKTNV-1" source="WIyWlLk6GJQsqaUBKTNV-3" target="QDgANllMK5spxsEK0VO_-10">
          <mxGeometry relative="1" as="geometry" />
        </mxCell>
        <mxCell id="WIyWlLk6GJQsqaUBKTNV-3" value="hight값을 8,&lt;br&gt;width값을 11로 호출" style="rounded=1;whiteSpace=wrap;html=1;fontSize=12;glass=0;strokeWidth=1;shadow=0;arcSize=0;" parent="WIyWlLk6GJQsqaUBKTNV-1" vertex="1">
          <mxGeometry x="150" y="270" width="120" height="50" as="geometry" />
        </mxCell>
        <mxCell id="QDgANllMK5spxsEK0VO_-4" value="" style="edgeStyle=orthogonalEdgeStyle;rounded=0;orthogonalLoop=1;jettySize=auto;html=1;" edge="1" parent="WIyWlLk6GJQsqaUBKTNV-1" source="QDgANllMK5spxsEK0VO_-0" target="QDgANllMK5spxsEK0VO_-3">
          <mxGeometry relative="1" as="geometry">
            <Array as="points">
              <mxPoint x="360" y="160" />
              <mxPoint x="210" y="160" />
            </Array>
          </mxGeometry>
        </mxCell>
        <mxCell id="QDgANllMK5spxsEK0VO_-0" value="시작" style="ellipse;whiteSpace=wrap;html=1;" vertex="1" parent="WIyWlLk6GJQsqaUBKTNV-1">
          <mxGeometry x="300" y="80" width="120" height="50" as="geometry" />
        </mxCell>
        <mxCell id="QDgANllMK5spxsEK0VO_-7" style="edgeStyle=orthogonalEdgeStyle;rounded=0;orthogonalLoop=1;jettySize=auto;html=1;exitX=0.5;exitY=1;exitDx=0;exitDy=0;entryX=0.5;entryY=0;entryDx=0;entryDy=0;" edge="1" parent="WIyWlLk6GJQsqaUBKTNV-1" source="QDgANllMK5spxsEK0VO_-1" target="WIyWlLk6GJQsqaUBKTNV-3">
          <mxGeometry relative="1" as="geometry" />
        </mxCell>
        <mxCell id="QDgANllMK5spxsEK0VO_-1" value="icecreamBody" style="rounded=1;whiteSpace=wrap;html=1;fontSize=12;glass=0;strokeWidth=1;shadow=0;arcSize=0;" vertex="1" parent="WIyWlLk6GJQsqaUBKTNV-1">
          <mxGeometry x="150" y="190" width="120" height="40" as="geometry" />
        </mxCell>
        <mxCell id="QDgANllMK5spxsEK0VO_-5" style="edgeStyle=orthogonalEdgeStyle;rounded=0;orthogonalLoop=1;jettySize=auto;html=1;exitX=0.5;exitY=1;exitDx=0;exitDy=0;entryX=0.5;entryY=0;entryDx=0;entryDy=0;" edge="1" parent="WIyWlLk6GJQsqaUBKTNV-1" source="QDgANllMK5spxsEK0VO_-0" target="QDgANllMK5spxsEK0VO_-2">
          <mxGeometry relative="1" as="geometry">
            <mxPoint x="530" y="80" as="targetPoint" />
            <Array as="points">
              <mxPoint x="360" y="160" />
              <mxPoint x="510" y="160" />
            </Array>
          </mxGeometry>
        </mxCell>
        <mxCell id="QDgANllMK5spxsEK0VO_-9" style="edgeStyle=orthogonalEdgeStyle;rounded=0;orthogonalLoop=1;jettySize=auto;html=1;exitX=0.5;exitY=1;exitDx=0;exitDy=0;entryX=0.5;entryY=0;entryDx=0;entryDy=0;" edge="1" parent="WIyWlLk6GJQsqaUBKTNV-1" source="QDgANllMK5spxsEK0VO_-2">
          <mxGeometry relative="1" as="geometry">
            <mxPoint x="510" y="270" as="targetPoint" />
          </mxGeometry>
        </mxCell>
        <mxCell id="QDgANllMK5spxsEK0VO_-2" value="icecreamBar 함수" style="rounded=1;whiteSpace=wrap;html=1;fontSize=12;glass=0;strokeWidth=1;shadow=0;arcSize=0;" vertex="1" parent="WIyWlLk6GJQsqaUBKTNV-1">
          <mxGeometry x="450" y="190" width="120" height="40" as="geometry" />
        </mxCell>
        <mxCell id="QDgANllMK5spxsEK0VO_-3" value="" style="shape=waypoint;sketch=0;size=6;pointerEvents=1;points=[];fillColor=default;resizable=0;rotatable=0;perimeter=centerPerimeter;snapToPoint=1;strokeColor=none;" vertex="1" parent="WIyWlLk6GJQsqaUBKTNV-1">
          <mxGeometry x="190" y="170" width="40" height="40" as="geometry" />
        </mxCell>
        <mxCell id="QDgANllMK5spxsEK0VO_-14" style="edgeStyle=orthogonalEdgeStyle;rounded=0;orthogonalLoop=1;jettySize=auto;html=1;exitX=0.5;exitY=1;exitDx=0;exitDy=0;entryX=0.5;entryY=0;entryDx=0;entryDy=0;" edge="1" parent="WIyWlLk6GJQsqaUBKTNV-1" source="QDgANllMK5spxsEK0VO_-10" target="QDgANllMK5spxsEK0VO_-12">
          <mxGeometry relative="1" as="geometry" />
        </mxCell>
        <mxCell id="QDgANllMK5spxsEK0VO_-10" value="문자열 &quot;*&quot; 출력 후,&lt;br&gt;줄바꿈 없음" style="rounded=1;whiteSpace=wrap;html=1;fontSize=12;glass=0;strokeWidth=1;shadow=0;arcSize=0;" vertex="1" parent="WIyWlLk6GJQsqaUBKTNV-1">
          <mxGeometry x="150" y="350" width="120" height="40" as="geometry" />
        </mxCell>
        <mxCell id="QDgANllMK5spxsEK0VO_-39" style="edgeStyle=orthogonalEdgeStyle;rounded=0;orthogonalLoop=1;jettySize=auto;html=1;exitX=0.5;exitY=1;exitDx=0;exitDy=0;entryX=0.5;entryY=0;entryDx=0;entryDy=0;" edge="1" parent="WIyWlLk6GJQsqaUBKTNV-1" source="QDgANllMK5spxsEK0VO_-11" target="QDgANllMK5spxsEK0VO_-38">
          <mxGeometry relative="1" as="geometry" />
        </mxCell>
        <mxCell id="QDgANllMK5spxsEK0VO_-11" value="hight값을 4,&lt;br&gt;width값을 11로 호출" style="rounded=1;whiteSpace=wrap;html=1;fontSize=12;glass=0;strokeWidth=1;shadow=0;arcSize=0;" vertex="1" parent="WIyWlLk6GJQsqaUBKTNV-1">
          <mxGeometry x="450" y="270" width="120" height="50" as="geometry" />
        </mxCell>
        <mxCell id="QDgANllMK5spxsEK0VO_-16" style="edgeStyle=orthogonalEdgeStyle;rounded=0;orthogonalLoop=1;jettySize=auto;html=1;exitX=0;exitY=0.5;exitDx=0;exitDy=0;entryX=0;entryY=0.5;entryDx=0;entryDy=0;" edge="1" parent="WIyWlLk6GJQsqaUBKTNV-1" source="QDgANllMK5spxsEK0VO_-27" target="QDgANllMK5spxsEK0VO_-10">
          <mxGeometry relative="1" as="geometry">
            <Array as="points">
              <mxPoint x="110" y="540" />
              <mxPoint x="110" y="370" />
            </Array>
          </mxGeometry>
        </mxCell>
        <mxCell id="QDgANllMK5spxsEK0VO_-31" style="edgeStyle=orthogonalEdgeStyle;rounded=0;orthogonalLoop=1;jettySize=auto;html=1;exitX=0.5;exitY=1;exitDx=0;exitDy=0;entryX=0.5;entryY=0;entryDx=0;entryDy=0;" edge="1" parent="WIyWlLk6GJQsqaUBKTNV-1" source="QDgANllMK5spxsEK0VO_-12" target="QDgANllMK5spxsEK0VO_-27">
          <mxGeometry relative="1" as="geometry" />
        </mxCell>
        <mxCell id="QDgANllMK5spxsEK0VO_-34" style="edgeStyle=orthogonalEdgeStyle;rounded=0;orthogonalLoop=1;jettySize=auto;html=1;exitX=1;exitY=0.5;exitDx=0;exitDy=0;entryX=1;entryY=0.5;entryDx=0;entryDy=0;" edge="1" parent="WIyWlLk6GJQsqaUBKTNV-1" source="QDgANllMK5spxsEK0VO_-12" target="QDgANllMK5spxsEK0VO_-22">
          <mxGeometry relative="1" as="geometry" />
        </mxCell>
        <mxCell id="QDgANllMK5spxsEK0VO_-12" value="_ 값이 &lt;br&gt;8보다 작은가?" style="rhombus;whiteSpace=wrap;html=1;strokeColor=default;fillColor=default;" vertex="1" parent="WIyWlLk6GJQsqaUBKTNV-1">
          <mxGeometry x="155" y="420" width="110" height="70" as="geometry" />
        </mxCell>
        <mxCell id="QDgANllMK5spxsEK0VO_-20" style="edgeStyle=orthogonalEdgeStyle;rounded=0;orthogonalLoop=1;jettySize=auto;html=1;entryX=0;entryY=0.5;entryDx=0;entryDy=0;exitX=0;exitY=0.5;exitDx=0;exitDy=0;" edge="1" parent="WIyWlLk6GJQsqaUBKTNV-1" source="QDgANllMK5spxsEK0VO_-15" target="QDgANllMK5spxsEK0VO_-10">
          <mxGeometry relative="1" as="geometry">
            <mxPoint x="120" y="350" as="targetPoint" />
            <Array as="points">
              <mxPoint x="80" y="765" />
              <mxPoint x="80" y="370" />
            </Array>
          </mxGeometry>
        </mxCell>
        <mxCell id="QDgANllMK5spxsEK0VO_-59" style="edgeStyle=orthogonalEdgeStyle;rounded=0;orthogonalLoop=1;jettySize=auto;html=1;" edge="1" parent="WIyWlLk6GJQsqaUBKTNV-1" source="QDgANllMK5spxsEK0VO_-15" target="QDgANllMK5spxsEK0VO_-57">
          <mxGeometry relative="1" as="geometry">
            <Array as="points">
              <mxPoint x="210" y="840" />
              <mxPoint x="360" y="840" />
            </Array>
          </mxGeometry>
        </mxCell>
        <mxCell id="QDgANllMK5spxsEK0VO_-15" value="_ 값이 &lt;br&gt;11보다 작은가?" style="rhombus;whiteSpace=wrap;html=1;strokeColor=default;fillColor=default;" vertex="1" parent="WIyWlLk6GJQsqaUBKTNV-1">
          <mxGeometry x="155" y="730" width="110" height="70" as="geometry" />
        </mxCell>
        <mxCell id="QDgANllMK5spxsEK0VO_-17" value="yes" style="text;html=1;align=center;verticalAlign=middle;resizable=0;points=[];autosize=1;strokeColor=none;fillColor=none;" vertex="1" parent="WIyWlLk6GJQsqaUBKTNV-1">
          <mxGeometry x="210" y="490" width="30" height="20" as="geometry" />
        </mxCell>
        <mxCell id="QDgANllMK5spxsEK0VO_-19" value="no" style="text;html=1;align=center;verticalAlign=middle;resizable=0;points=[];autosize=1;strokeColor=none;fillColor=none;" vertex="1" parent="WIyWlLk6GJQsqaUBKTNV-1">
          <mxGeometry x="290" y="510" width="30" height="20" as="geometry" />
        </mxCell>
        <mxCell id="QDgANllMK5spxsEK0VO_-24" style="edgeStyle=orthogonalEdgeStyle;rounded=0;orthogonalLoop=1;jettySize=auto;html=1;exitX=0.5;exitY=1;exitDx=0;exitDy=0;entryX=0.5;entryY=0;entryDx=0;entryDy=0;" edge="1" parent="WIyWlLk6GJQsqaUBKTNV-1" source="QDgANllMK5spxsEK0VO_-22" target="QDgANllMK5spxsEK0VO_-35">
          <mxGeometry relative="1" as="geometry">
            <mxPoint x="210" y="650" as="targetPoint" />
          </mxGeometry>
        </mxCell>
        <mxCell id="QDgANllMK5spxsEK0VO_-22" value="줄바꿈(print &quot;&quot;)" style="rounded=1;whiteSpace=wrap;html=1;fontSize=12;glass=0;strokeWidth=1;shadow=0;arcSize=0;" vertex="1" parent="WIyWlLk6GJQsqaUBKTNV-1">
          <mxGeometry x="150" y="585" width="120" height="40" as="geometry" />
        </mxCell>
        <mxCell id="QDgANllMK5spxsEK0VO_-25" value="yes" style="text;html=1;align=center;verticalAlign=middle;resizable=0;points=[];autosize=1;strokeColor=none;fillColor=none;" vertex="1" parent="WIyWlLk6GJQsqaUBKTNV-1">
          <mxGeometry x="50" y="500" width="30" height="20" as="geometry" />
        </mxCell>
        <mxCell id="QDgANllMK5spxsEK0VO_-27" value="_에 1을 더함" style="rounded=1;whiteSpace=wrap;html=1;fontSize=12;glass=0;strokeWidth=1;shadow=0;arcSize=0;" vertex="1" parent="WIyWlLk6GJQsqaUBKTNV-1">
          <mxGeometry x="150" y="520" width="120" height="40" as="geometry" />
        </mxCell>
        <mxCell id="QDgANllMK5spxsEK0VO_-37" style="edgeStyle=orthogonalEdgeStyle;rounded=0;orthogonalLoop=1;jettySize=auto;html=1;entryX=0.5;entryY=0;entryDx=0;entryDy=0;" edge="1" parent="WIyWlLk6GJQsqaUBKTNV-1" source="QDgANllMK5spxsEK0VO_-35" target="QDgANllMK5spxsEK0VO_-15">
          <mxGeometry relative="1" as="geometry" />
        </mxCell>
        <mxCell id="QDgANllMK5spxsEK0VO_-35" value="_값 초기화" style="rounded=1;whiteSpace=wrap;html=1;fontSize=12;glass=0;strokeWidth=1;shadow=0;arcSize=0;" vertex="1" parent="WIyWlLk6GJQsqaUBKTNV-1">
          <mxGeometry x="150" y="660" width="120" height="40" as="geometry" />
        </mxCell>
        <mxCell id="QDgANllMK5spxsEK0VO_-41" style="edgeStyle=orthogonalEdgeStyle;rounded=0;orthogonalLoop=1;jettySize=auto;html=1;entryX=0.5;entryY=0;entryDx=0;entryDy=0;" edge="1" parent="WIyWlLk6GJQsqaUBKTNV-1" source="QDgANllMK5spxsEK0VO_-38" target="QDgANllMK5spxsEK0VO_-40">
          <mxGeometry relative="1" as="geometry" />
        </mxCell>
        <mxCell id="QDgANllMK5spxsEK0VO_-38" value="공백(띄어쓰기) 출력 후,&lt;br&gt;줄바꿈 없음" style="rounded=1;whiteSpace=wrap;html=1;fontSize=12;glass=0;strokeWidth=1;shadow=0;arcSize=0;" vertex="1" parent="WIyWlLk6GJQsqaUBKTNV-1">
          <mxGeometry x="450" y="350" width="120" height="40" as="geometry" />
        </mxCell>
        <mxCell id="QDgANllMK5spxsEK0VO_-43" style="edgeStyle=orthogonalEdgeStyle;rounded=0;orthogonalLoop=1;jettySize=auto;html=1;entryX=0.5;entryY=0;entryDx=0;entryDy=0;" edge="1" parent="WIyWlLk6GJQsqaUBKTNV-1" source="QDgANllMK5spxsEK0VO_-40" target="QDgANllMK5spxsEK0VO_-42">
          <mxGeometry relative="1" as="geometry" />
        </mxCell>
        <mxCell id="QDgANllMK5spxsEK0VO_-47" style="edgeStyle=orthogonalEdgeStyle;rounded=0;orthogonalLoop=1;jettySize=auto;html=1;entryX=1;entryY=0.5;entryDx=0;entryDy=0;" edge="1" parent="WIyWlLk6GJQsqaUBKTNV-1" source="QDgANllMK5spxsEK0VO_-40" target="QDgANllMK5spxsEK0VO_-46">
          <mxGeometry relative="1" as="geometry">
            <Array as="points">
              <mxPoint x="590" y="460" />
              <mxPoint x="590" y="620" />
            </Array>
          </mxGeometry>
        </mxCell>
        <mxCell id="QDgANllMK5spxsEK0VO_-40" value="_ 값이 &lt;br&gt;(width/2) -1보다 &lt;br&gt;작은가?" style="rhombus;whiteSpace=wrap;html=1;strokeColor=default;fillColor=default;" vertex="1" parent="WIyWlLk6GJQsqaUBKTNV-1">
          <mxGeometry x="455" y="420" width="110" height="80" as="geometry" />
        </mxCell>
        <mxCell id="QDgANllMK5spxsEK0VO_-45" style="edgeStyle=orthogonalEdgeStyle;rounded=0;orthogonalLoop=1;jettySize=auto;html=1;entryX=0;entryY=0.5;entryDx=0;entryDy=0;" edge="1" parent="WIyWlLk6GJQsqaUBKTNV-1" source="QDgANllMK5spxsEK0VO_-42" target="QDgANllMK5spxsEK0VO_-38">
          <mxGeometry relative="1" as="geometry">
            <Array as="points">
              <mxPoint x="420" y="550" />
              <mxPoint x="420" y="370" />
            </Array>
          </mxGeometry>
        </mxCell>
        <mxCell id="QDgANllMK5spxsEK0VO_-42" value="_에 1을 더함" style="rounded=1;whiteSpace=wrap;html=1;fontSize=12;glass=0;strokeWidth=1;shadow=0;arcSize=0;" vertex="1" parent="WIyWlLk6GJQsqaUBKTNV-1">
          <mxGeometry x="450" y="530" width="120" height="40" as="geometry" />
        </mxCell>
        <mxCell id="QDgANllMK5spxsEK0VO_-44" value="yes" style="text;html=1;align=center;verticalAlign=middle;resizable=0;points=[];autosize=1;strokeColor=none;fillColor=none;" vertex="1" parent="WIyWlLk6GJQsqaUBKTNV-1">
          <mxGeometry x="520" y="500" width="30" height="20" as="geometry" />
        </mxCell>
        <mxCell id="QDgANllMK5spxsEK0VO_-50" style="edgeStyle=orthogonalEdgeStyle;rounded=0;orthogonalLoop=1;jettySize=auto;html=1;entryX=0.5;entryY=0;entryDx=0;entryDy=0;" edge="1" parent="WIyWlLk6GJQsqaUBKTNV-1" source="QDgANllMK5spxsEK0VO_-46" target="QDgANllMK5spxsEK0VO_-49">
          <mxGeometry relative="1" as="geometry" />
        </mxCell>
        <mxCell id="QDgANllMK5spxsEK0VO_-46" value="&quot;| |&quot;출력 후 줄바꿈" style="rounded=1;whiteSpace=wrap;html=1;fontSize=12;glass=0;strokeWidth=1;shadow=0;arcSize=0;" vertex="1" parent="WIyWlLk6GJQsqaUBKTNV-1">
          <mxGeometry x="450" y="600" width="120" height="40" as="geometry" />
        </mxCell>
        <mxCell id="QDgANllMK5spxsEK0VO_-48" value="no" style="text;html=1;align=center;verticalAlign=middle;resizable=0;points=[];autosize=1;strokeColor=none;fillColor=none;" vertex="1" parent="WIyWlLk6GJQsqaUBKTNV-1">
          <mxGeometry x="590" y="530" width="30" height="20" as="geometry" />
        </mxCell>
        <mxCell id="QDgANllMK5spxsEK0VO_-53" style="edgeStyle=orthogonalEdgeStyle;rounded=0;orthogonalLoop=1;jettySize=auto;html=1;entryX=0.5;entryY=0;entryDx=0;entryDy=0;" edge="1" parent="WIyWlLk6GJQsqaUBKTNV-1" source="QDgANllMK5spxsEK0VO_-49" target="QDgANllMK5spxsEK0VO_-51">
          <mxGeometry relative="1" as="geometry" />
        </mxCell>
        <mxCell id="QDgANllMK5spxsEK0VO_-49" value="_값 초기화" style="rounded=1;whiteSpace=wrap;html=1;fontSize=12;glass=0;strokeWidth=1;shadow=0;arcSize=0;" vertex="1" parent="WIyWlLk6GJQsqaUBKTNV-1">
          <mxGeometry x="450" y="670" width="120" height="40" as="geometry" />
        </mxCell>
        <mxCell id="QDgANllMK5spxsEK0VO_-54" style="edgeStyle=orthogonalEdgeStyle;rounded=0;orthogonalLoop=1;jettySize=auto;html=1;entryX=0;entryY=0.5;entryDx=0;entryDy=0;startArrow=none;exitX=0;exitY=0.5;exitDx=0;exitDy=0;" edge="1" parent="WIyWlLk6GJQsqaUBKTNV-1" source="QDgANllMK5spxsEK0VO_-51" target="QDgANllMK5spxsEK0VO_-38">
          <mxGeometry relative="1" as="geometry">
            <Array as="points">
              <mxPoint x="390" y="775" />
              <mxPoint x="390" y="370" />
            </Array>
          </mxGeometry>
        </mxCell>
        <mxCell id="QDgANllMK5spxsEK0VO_-60" style="edgeStyle=orthogonalEdgeStyle;rounded=0;orthogonalLoop=1;jettySize=auto;html=1;exitX=0.5;exitY=1;exitDx=0;exitDy=0;" edge="1" parent="WIyWlLk6GJQsqaUBKTNV-1" source="QDgANllMK5spxsEK0VO_-51">
          <mxGeometry relative="1" as="geometry">
            <mxPoint x="360" y="870" as="targetPoint" />
          </mxGeometry>
        </mxCell>
        <mxCell id="QDgANllMK5spxsEK0VO_-51" value="_ 값이 &lt;br&gt;11보다 작은가?" style="rhombus;whiteSpace=wrap;html=1;strokeColor=default;fillColor=default;" vertex="1" parent="WIyWlLk6GJQsqaUBKTNV-1">
          <mxGeometry x="455" y="740" width="110" height="70" as="geometry" />
        </mxCell>
        <mxCell id="QDgANllMK5spxsEK0VO_-55" value="yes" style="text;html=1;align=center;verticalAlign=middle;resizable=0;points=[];autosize=1;strokeColor=none;fillColor=none;" vertex="1" parent="WIyWlLk6GJQsqaUBKTNV-1">
          <mxGeometry x="356" y="560" width="30" height="20" as="geometry" />
        </mxCell>
        <mxCell id="QDgANllMK5spxsEK0VO_-57" value="끝" style="ellipse;whiteSpace=wrap;html=1;" vertex="1" parent="WIyWlLk6GJQsqaUBKTNV-1">
          <mxGeometry x="300" y="870" width="120" height="50" as="geometry" />
        </mxCell>
        <mxCell id="QDgANllMK5spxsEK0VO_-61" value="no" style="text;html=1;align=center;verticalAlign=middle;resizable=0;points=[];autosize=1;strokeColor=none;fillColor=none;" vertex="1" parent="WIyWlLk6GJQsqaUBKTNV-1">
          <mxGeometry x="180" y="810" width="30" height="20" as="geometry" />
        </mxCell>
        <mxCell id="QDgANllMK5spxsEK0VO_-62" value="no" style="text;html=1;align=center;verticalAlign=middle;resizable=0;points=[];autosize=1;strokeColor=none;fillColor=none;" vertex="1" parent="WIyWlLk6GJQsqaUBKTNV-1">
          <mxGeometry x="510" y="810" width="30" height="20" as="geometry" />
        </mxCell>
      </root>
    </mxGraphModel>
  </diagram>
</mxfile>
